<?xml version="1.0" encoding="UTF-8" standalone="no"?>
<!-- Created with Inkscape (http://www.inkscape.org/) -->

<svg
   width="190.5mm"
   height="190.50002mm"
   viewBox="0 0 190.5 190.50002"
   version="1.1"
   id="svg1"
   xml:space="preserve"
   xmlns="http://www.w3.org/2000/svg"
   xmlns:svg="http://www.w3.org/2000/svg"><defs
     id="defs1" /><g
     id="layer1"
     transform="translate(-7.2589883,-30.840495)"><g
       id="g51"><path
         id="circle1"
         style="fill:#ff9900;fill-opacity:1;stroke-width:0.27047"
         d="m 102.50899,30.840495 a 95.25,95.25 0 0 0 -95.2500016,95.249995 95.25,95.25 0 0 0 95.2500016,95.25 95.25,95.25 0 0 0 95.25,-95.25 95.25,95.25 0 0 0 -95.25,-95.249995 z m 1.94975,53.846325 a 12.140845,11.709193 2.918851e-5 0 1 7.72769,3.380673 12.140845,11.709193 2.918851e-5 0 1 0.0439,16.559197 12.140845,11.709193 2.918851e-5 0 1 -17.170013,0.0419 12.140845,11.709193 2.918851e-5 0 1 -0.04392,-16.559199 12.140845,11.709193 2.918851e-5 0 1 9.442313,-3.422531 z m 23.0389,23.54068 a 11.769309,11.834046 89.999165 0 1 7.53236,3.39773 11.769309,11.834046 89.999165 0 1 0.0429,16.64446 11.769309,11.834046 89.999165 0 1 -16.73593,0.0424 11.769309,11.834046 89.999165 0 1 -0.0429,-16.64446 11.769309,11.834046 89.999165 0 1 9.20357,-3.4401 z m -45.352266,0.23978 a 11.58896,11.404528 89.999904 0 1 7.258988,3.34605 11.58896,11.404528 89.999904 0 1 0.04134,16.38918 11.58896,11.404528 89.999904 0 1 -16.128214,0.0419 11.58896,11.404528 89.999904 0 1 -0.04134,-16.38918 11.58896,11.404528 89.999904 0 1 8.869227,-3.38791 z m 22.435836,24.62279 a 11.58896,12.140843 89.999965 0 1 7.7277,3.34605 11.58896,12.140843 89.999965 0 1 0.0439,16.38918 11.58896,12.140843 89.999965 0 1 -17.169493,0.0419 11.58896,12.140843 89.999965 0 1 -0.04393,-16.38918 11.58896,12.140843 89.999965 0 1 9.441793,-3.3879 z" /><path
         id="ellipse1"
         style="fill:#ffd012;fill-opacity:1;stroke-width:0.243875"
         d="m 102.50899,34.164323 a 87.018227,84.764694 0 0 0 -87.017946,84.764847 87.018227,84.764694 0 0 0 87.017946,84.76434 87.018227,84.764694 0 0 0 87.01846,-84.76434 87.018227,84.764694 0 0 0 -87.01846,-84.764847 z m 1.94975,50.522497 a 12.140845,11.709193 2.918851e-5 0 1 7.72769,3.380673 12.140845,11.709193 2.918851e-5 0 1 0.0439,16.559197 12.140845,11.709193 2.918851e-5 0 1 -17.170013,0.0419 12.140845,11.709193 2.918851e-5 0 1 -0.04392,-16.559199 12.140845,11.709193 2.918851e-5 0 1 9.442313,-3.422531 z m 23.0389,23.54068 a 11.769309,11.834046 89.999165 0 1 7.53236,3.39773 11.769309,11.834046 89.999165 0 1 0.0429,16.64446 11.769309,11.834046 89.999165 0 1 -16.73593,0.0424 11.769309,11.834046 89.999165 0 1 -0.0429,-16.64446 11.769309,11.834046 89.999165 0 1 9.20357,-3.4401 z m -45.352266,0.23978 a 11.58896,11.404528 89.999904 0 1 7.258988,3.34605 11.58896,11.404528 89.999904 0 1 0.04134,16.38918 11.58896,11.404528 89.999904 0 1 -16.128214,0.0419 11.58896,11.404528 89.999904 0 1 -0.04134,-16.38918 11.58896,11.404528 89.999904 0 1 8.869227,-3.38791 z m 22.435836,24.62279 a 11.58896,12.140843 89.999965 0 1 7.7277,3.34605 11.58896,12.140843 89.999965 0 1 0.0439,16.38918 11.58896,12.140843 89.999965 0 1 -17.169493,0.0419 11.58896,12.140843 89.999965 0 1 -0.04393,-16.38918 11.58896,12.140843 89.999965 0 1 9.441793,-3.3879 z" /><path
         id="ellipse2"
         style="fill:#ff9900;fill-opacity:1;stroke-width:0.166651"
         d="m 65.263972,-102.51006 a 55.539879,62.015667 0 0 0 55.539868,62.015469 55.539879,62.015667 0 0 0 55.54017,-62.015469 55.539879,62.015667 0 0 0 -55.53986,-62.01598 55.539879,62.015667 0 0 0 -55.540178,62.01598 z m 19.899675,-1.94977 a 11.707455,12.142774 3.7236313 0 1 3.415947,-7.72777 11.707455,12.142774 3.7236313 0 1 16.559396,-0.0439 11.707455,12.142774 3.7236313 0 1 -0.0365,17.170192 11.707455,12.142774 3.7236313 0 1 -16.559394,0.04393 11.707455,12.142774 3.7236313 0 1 -3.379429,-9.442422 z m 23.645853,-23.03914 a 11.759566,11.843974 19.959828 0 1 3.4321,-7.53244 11.759566,11.843974 19.959828 0 1 16.64466,-0.0429 11.759566,11.843974 19.959828 0 1 -0.034,16.7361 11.759566,11.843974 19.959828 0 1 -16.64466,0.0429 11.759566,11.843974 19.959828 0 1 -3.39808,-9.20367 z m 0.0328,45.352741 a 11.401071,11.592595 82.178662 0 1 3.37919,-7.259065 11.401071,11.592595 82.178662 0 1 16.38937,-0.04134 11.401071,11.592595 82.178662 0 1 -0.0318,16.128382 11.401071,11.592595 82.178662 0 1 -16.38937,0.04134 11.401071,11.592595 82.178662 0 1 -3.34742,-8.869318 z m 24.7252,-22.436071 a 11.587604,12.14239 2.933406 0 1 3.38133,-7.72778 11.587604,12.14239 2.933406 0 1 16.38938,-0.0439 11.587604,12.14239 2.933406 0 1 -0.0365,17.169671 11.587604,12.14239 2.933406 0 1 -16.38938,0.04393 11.587604,12.14239 2.933406 0 1 -3.34481,-9.441891 z"
         transform="matrix(0,1,-0.99998958,0.00456469,0,0)" /><path
         id="ellipse3"
         style="fill:#ffd012;fill-opacity:1;stroke-width:0.156231"
         d="m 63.421979,-102.88104 a 56.779068,53.313732 0 0 0 56.779171,53.314069 56.779068,53.313732 0 0 0 56.77876,-53.314069 56.779068,53.313732 0 0 0 -56.77918,-53.31355 56.779068,53.313732 0 0 0 -56.778751,53.31355 z m 21.728157,-1.57873 a 11.707551,12.142667 3.6192541 0 1 3.414948,-7.72777 11.707551,12.142667 3.6192541 0 1 16.559386,-0.0439 11.707551,12.142667 3.6192541 0 1 -0.0343,17.170177 11.707551,12.142667 3.6192541 0 1 -16.559394,0.04393 11.707551,12.142667 3.6192541 0 1 -3.38065,-9.442417 z M 108.793,-127.4989 a 11.760049,11.84348 19.555601 0 1 3.43114,-7.53243 11.760049,11.84348 19.555601 0 1 16.64465,-0.0429 11.760049,11.84348 19.555601 0 1 -0.0318,16.73609 11.760049,11.84348 19.555601 0 1 -16.64466,0.0429 11.760049,11.84348 19.555601 0 1 -3.39928,-9.20366 z m 0.0386,45.352718 a 11.401261,11.592395 82.389865 0 1 3.37824,-7.25906 11.401261,11.592395 82.389865 0 1 16.38937,-0.04134 11.401261,11.592395 82.389865 0 1 -0.0297,16.128373 11.401261,11.592395 82.389865 0 1 -16.38936,0.04134 11.401261,11.592395 82.389865 0 1 -3.34857,-8.869313 z m 24.7223,-22.436058 a 11.58768,12.142304 2.8508394 0 1 3.38032,-7.72777 11.58768,12.142304 2.8508394 0 1 16.38938,-0.0439 11.58768,12.142304 2.8508394 0 1 -0.0343,17.169666 11.58768,12.142304 2.8508394 0 1 -16.38937,0.04393 11.58768,12.142304 2.8508394 0 1 -3.34603,-9.441896 z"
         transform="matrix(0,1,-0.99999016,0.00443535,0,0)" /><path
         id="ellipse4"
         style="fill:#ff9900;fill-opacity:1;stroke-width:0.0383881"
         d="m -16.372939,-131.13081 a 13.518945,13.519006 0 0 0 10.2167295,4.66583 13.518945,13.519006 0 0 0 13.5189406,-13.51877 13.518945,13.519006 0 0 0 -0.2783297,-2.72142 12.135428,11.714425 45.149738 0 1 0.1325656,1.49005 12.135428,11.714425 45.149738 0 1 -11.7131733,11.71561 12.135428,11.714425 45.149738 0 1 -12.1343067,-12.13699 12.135428,11.714425 45.149738 0 1 11.713173,-11.71561 12.135428,11.714425 45.149738 0 1 1.5149439,0.13509 13.518945,13.519006 0 0 0 -2.7535926,-0.28569 13.518945,13.519006 0 0 0 -13.5193073,13.51913 13.518945,13.519006 0 0 0 3.302357,8.85277 z"
         transform="matrix(-0.70561892,0.70859152,-0.70922134,-0.70498588,0,0)" /><path
         id="ellipse5"
         style="fill:#ff9900;fill-opacity:1;stroke-width:0.0383881"
         d="m -16.199903,-165.11533 a 13.518945,13.519006 0 0 0 10.2170937,4.66619 13.518945,13.519006 0 0 0 13.4224536,-12.17024 11.828765,11.774567 45.173455 0 1 -11.6382493,10.00237 11.828765,11.774567 45.173455 0 1 -11.828652,-11.82905 11.828765,11.774567 45.173455 0 1 11.7743749,-11.77504 11.828765,11.774567 45.173455 0 1 10.0206993,5.57711 13.518945,13.519006 0 0 0 -11.75077,-6.84324 13.518945,13.519006 0 0 0 -13.5189402,13.51877 13.518945,13.519006 0 0 0 3.30199,8.85313 z"
         transform="matrix(-0.70561892,0.70859152,-0.70922134,-0.70498588,0,0)" /><path
         id="ellipse6"
         style="fill:#ff9900;fill-opacity:1;stroke-width:0.0383881"
         d="m 17.611865,-131.13063 a 13.518945,13.519006 0 0 0 10.21673,4.66583 13.518945,13.519006 0 0 0 13.51894,-13.51877 13.518945,13.519006 0 0 0 -6.594465,-11.61049 11.39944,11.594137 45.138217 0 1 4.512794,9.1502 11.39944,11.594137 45.138217 0 1 -11.594416,11.59381 11.39944,11.594137 45.138217 0 1 -11.399855,-11.39878 11.39944,11.594137 45.138217 0 1 5.362966,-9.71629 13.518945,13.519006 0 0 0 -7.324684,11.98136 13.518945,13.519006 0 0 0 3.30199,8.85313 z"
         transform="matrix(-0.70561892,0.70859152,-0.70922134,-0.70498588,0,0)" /><path
         id="ellipse7"
         style="fill:#ff9900;fill-opacity:1;stroke-width:0.0383881"
         d="m 17.784901,-165.11515 a 13.518945,13.519006 0 0 0 10.21673,4.66583 13.518945,13.519006 0 0 0 13.519307,-13.51913 13.518945,13.519006 0 0 0 -0.434549,-3.39009 12.135426,11.594137 45.148843 0 1 0.227367,2.04641 12.135426,11.594137 45.148843 0 1 -11.592595,11.59564 12.135426,11.594137 45.148843 0 1 -12.133942,-12.13662 12.135426,11.594137 45.148843 0 1 11.466144,-11.58934 13.518945,13.519006 0 0 0 -1.051512,-0.0446 13.518945,13.519006 0 0 0 -13.51894,13.51877 13.518945,13.519006 0 0 0 3.30199,8.85313 z"
         transform="matrix(-0.70561892,0.70859152,-0.70922134,-0.70498588,0,0)" /></g><g
       id="g38"
       style="display:none"><ellipse
         style="fill:#000000;fill-opacity:1;stroke-width:0.0326469"
         id="ellipse35"
         cx="26.566042"
         cy="-142.12541"
         rx="11.497583"
         ry="11.496644"
         transform="matrix(-0.69959412,0.71454046,-0.70322647,-0.71096592,0,0)" /><ellipse
         style="fill:#000000;fill-opacity:1;stroke-width:0.0337002"
         id="ellipse36"
         cx="33.481842"
         cy="-176.39557"
         rx="11.866704"
         ry="11.869515"
         transform="matrix(-0.72159608,0.6923143,-0.72511153,-0.68863145,0,0)" /><ellipse
         style="fill:#000000;fill-opacity:1;stroke-width:0.0338675"
         id="ellipse37"
         cx="-2.2116077"
         cy="-141.41104"
         rx="11.925872"
         ry="11.928072"
         transform="matrix(-0.71801608,0.69602652,-0.72155196,-0.69236029,0,0)" /><ellipse
         style="fill:#000000;fill-opacity:1;stroke-width:0.0335116"
         id="ellipse38"
         cx="-3.8252697"
         cy="-174.41121"
         rx="11.801558"
         ry="11.801886"
         transform="matrix(-0.70724413,0.7069694,-0.7108382,-0.70335557,0,0)" /></g></g></svg>
